<svg width="53" height="49" viewBox="0 0 53 49" fill="none" xmlns="http://www.w3.org/2000/svg">
<path d="M43.1686 28.7982H21.3061L21.0295 27.2256H44.1789C44.9672 27.2256 45.6463 26.7111 45.802 25.9976L49.2934 9.98222C49.3911 9.53356 49.2652 9.06653 48.9522 8.71128C48.6391 8.35603 48.1688 8.14931 47.6736 8.14778L17.6673 8.0605L17.1058 4.86172C16.975 4.12059 16.2826 3.57547 15.4711 3.57547H8.10243C5.81184 3.57547 3.9469 5.29353 3.9469 7.40513C3.9469 9.51519 5.81018 11.2333 8.10243 11.2333H9.33799L13.4968 35.1912C13.626 35.9338 14.3183 36.4805 15.1316 36.4805H43.1702C45.4376 36.4805 47.281 34.7563 47.281 32.6371C47.281 30.5209 45.436 28.7982 43.1686 28.7982ZM19.62 19.185L25.19 19.182L25.7034 24.1616H20.4928L19.62 19.185ZM35.2633 19.1774L34.7366 24.1616H29.0308L28.5174 19.1804L35.2633 19.1774ZM28.201 16.1179L27.6892 11.1521L36.1063 11.1766L35.5846 16.1149L28.201 16.1179ZM38.064 24.1616L38.5907 19.1758L43.9122 19.1728L42.8241 24.1616H38.064ZM44.5813 16.1103L38.9153 16.1118L39.4337 11.1843L45.6513 11.2026L44.5813 16.1103ZM24.3602 11.1429L24.8736 16.1195L19.0817 16.1225L18.2039 11.1261L24.3602 11.1429ZM43.1686 33.418H16.5427L12.3855 9.46006C12.2563 8.71588 11.5623 8.17075 10.7491 8.17075H8.10243C7.63702 8.17075 7.2594 7.82775 7.2594 7.40513C7.2594 6.9825 7.63702 6.63797 8.10243 6.63797H14.0616L18.2619 30.5745C18.3927 31.3156 19.085 31.8607 19.8966 31.8607H43.1686C43.6091 31.8607 43.9669 32.2098 43.9669 32.6386C43.9685 33.0689 43.6108 33.418 43.1686 33.418Z" fill="black"/>
<path d="M21.3325 36.9705C18.8117 36.9705 16.7596 38.8662 16.7596 41.1983C16.7596 43.5304 18.8101 45.4261 21.3325 45.4261C23.855 45.4261 25.9071 43.5304 25.9071 41.1983C25.9071 38.8662 23.855 36.9705 21.3325 36.9705ZM21.3325 42.362C20.6386 42.362 20.0721 41.8399 20.0721 41.1967C20.0721 40.5536 20.6369 40.0315 21.3325 40.0315C22.0282 40.0315 22.5946 40.5536 22.5946 41.1967C22.5946 41.8399 22.0282 42.362 21.3325 42.362Z" fill="black"/>
<path d="M37.2508 36.9705C34.7284 36.9705 32.6763 38.8662 32.6763 41.1983C32.6763 43.5304 34.7284 45.4261 37.2508 45.4261C39.7716 45.4261 41.8237 43.5304 41.8237 41.1983C41.8237 38.8662 39.7733 36.9705 37.2508 36.9705ZM37.2508 42.362C36.5552 42.362 35.9888 41.8399 35.9888 41.1967C35.9888 40.5536 36.5552 40.0315 37.2508 40.0315C37.9448 40.0315 38.5112 40.5536 38.5112 41.1967C38.5112 41.8399 37.9465 42.362 37.2508 42.362Z" fill="black"/>
</svg>
