<svg width="26" height="24" viewBox="0 0 26 24" fill="none" xmlns="http://www.w3.org/2000/svg">
<path d="M10.5009 0.201263C5.05453 0.201263 0.649414 4.31307 0.649414 9.39685C0.649414 14.4806 5.05453 18.5924 10.5009 18.5924C12.4454 18.5924 14.2451 18.06 15.7708 17.1556L22.8878 23.7988L25.3507 21.4999L18.3242 14.9581C19.5873 13.4115 20.3525 11.495 20.3525 9.39685C20.3525 4.31307 15.9473 0.201263 10.5009 0.201263ZM10.5009 2.36493C14.6729 2.36493 18.0345 5.50267 18.0345 9.39685C18.0345 13.291 14.6729 16.4288 10.5009 16.4288C6.32898 16.4288 2.96742 13.291 2.96742 9.39685C2.96742 5.50267 6.32898 2.36493 10.5009 2.36493Z" fill="white"/>
</svg>
