<!-- icon666.com - MILLIONS vector ICONS FREE --><svg version="1.1" id="Capa_1" xmlns="http://www.w3.org/2000/svg" xmlns:xlink="http://www.w3.org/1999/xlink" x="0px" y="0px" viewBox="0 0 426.667 426.667" style="enable-background:new 0 0 426.667 426.667;" xml:space="preserve"><g><g><g><path d="M213.333,0C96,0,0,96,0,213.333s96,213.333,213.333,213.333s213.333-96,213.333-213.333S330.667,0,213.333,0z M213.333,381.867C121.6,381.867,44.8,307.2,44.8,213.333C44.8,121.6,119.467,44.8,213.333,44.8s168.533,74.667,168.533,168.533 C381.867,305.067,305.067,381.867,213.333,381.867z" fill="#000000" style="fill: rgb(120, 120, 120);"></path><polygon points="170.667,238.933 123.733,192 93.867,221.867 170.667,298.667 200.533,268.8 322.133,147.2 292.267,117.333 " fill="#000000" style="fill: rgb(120, 120, 120);"></polygon></g></g></g></svg>